<?xml version="1.0" standalone="no"?>
<!DOCTYPE svg PUBLIC "-//W3C//DTD SVG 20010904//EN"
 "http://www.w3.org/TR/2001/REC-SVG-20010904/DTD/svg10.dtd">
<svg version="1.0" xmlns="http://www.w3.org/2000/svg"
 width="512.000000pt" height="512.000000pt" viewBox="0 0 512.000000 512.000000"
 preserveAspectRatio="xMidYMid meet">

<g transform="translate(0.000000,512.000000) scale(0.100000,-0.100000)"
fill="#000000" stroke="none">
<path d="M2400 5105 c-264 -53 -482 -221 -596 -460 -58 -120 -75 -187 -81
-326 -19 -402 237 -746 632 -850 161 -42 382 -24 537 44 179 80 336 234 422
418 59 125 71 184 71 359 -1 149 -2 159 -33 250 -79 230 -231 400 -446 500
-154 73 -347 97 -506 65z"/>
<path d="M1180 3789 c-71 -14 -167 -67 -223 -123 -169 -169 -181 -427 -30
-614 107 -131 495 -431 686 -528 l47 -24 0 -175 0 -175 900 0 900 0 0 175 0
174 73 42 c291 169 651 473 710 600 34 72 46 129 47 205 1 272 -251 488 -520
447 -108 -17 -181 -58 -301 -169 -153 -141 -258 -217 -404 -289 -272 -135
-539 -160 -824 -79 -203 58 -390 173 -604 372 -159 149 -288 194 -457 161z"/>
<path d="M1660 1756 c0 -315 203 -633 498 -777 224 -109 494 -121 727 -30 244
94 446 309 526 560 30 94 58 293 46 325 -6 14 -94 16 -902 16 l-895 0 0 -94z"/>
<path d="M1390 1294 c-79 -173 -147 -426 -170 -629 -31 -280 3 -419 132 -542
63 -58 114 -87 195 -108 148 -39 297 1 411 108 99 95 130 169 142 349 5 70 12
142 15 160 6 33 6 33 -69 66 -231 104 -446 313 -567 555 -28 56 -52 104 -54
106 -2 2 -18 -28 -35 -65z"/>
<path d="M3670 1335 c-48 -128 -149 -280 -256 -388 -106 -107 -191 -169 -316
-230 -95 -46 -107 -55 -103 -74 3 -13 9 -82 14 -155 10 -146 29 -218 79 -290
197 -287 621 -253 771 61 l36 76 -1 175 c0 189 -18 317 -69 495 -28 100 -110
315 -131 342 -11 17 -13 16 -24 -12z"/>
</g>
</svg>
