<?xml version="1.0" standalone="no"?>
<!DOCTYPE svg PUBLIC "-//W3C//DTD SVG 20010904//EN"
 "http://www.w3.org/TR/2001/REC-SVG-20010904/DTD/svg10.dtd">
<svg version="1.0" xmlns="http://www.w3.org/2000/svg"
 width="512.000000pt" height="512.000000pt" viewBox="0 0 512.000000 512.000000"
 preserveAspectRatio="xMidYMid meet">

<g transform="translate(0.000000,512.000000) scale(0.100000,-0.100000)"
fill="#000000" stroke="none">
<path d="M2441 5104 c-213 -57 -361 -247 -361 -463 0 -214 124 -390 326 -462
44 -16 82 -21 154 -21 148 0 260 49 356 155 110 123 150 291 109 452 -64 245
-339 405 -584 339z"/>
<path d="M2355 4034 c-182 -33 -376 -114 -505 -212 -83 -63 -206 -193 -249
-265 -96 -162 -131 -346 -96 -509 33 -156 96 -268 225 -399 144 -147 335 -262
582 -353 108 -40 144 -44 194 -20 90 43 101 191 18 248 -10 7 -59 28 -109 46
-111 40 -267 117 -349 172 -34 23 -93 74 -132 113 -155 156 -190 330 -103 512
26 56 135 190 146 180 2 -2 -21 -122 -51 -266 l-54 -263 42 -61 c61 -89 184
-185 334 -259 68 -33 125 -58 128 -55 3 3 -12 31 -32 63 -49 76 -56 142 -25
208 17 35 56 72 174 169 84 68 162 129 175 136 53 28 122 -20 122 -84 0 -39
-14 -56 -97 -125 l-63 -51 71 -107 c40 -59 75 -111 79 -115 4 -4 53 13 110 39
82 37 109 45 138 40 32 -5 42 0 88 39 29 25 70 72 92 105 l40 59 -54 262 c-30
144 -53 264 -51 266 11 10 120 -124 146 -180 87 -182 52 -356 -103 -512 -39
-39 -99 -91 -134 -114 -82 -55 -233 -130 -347 -171 -49 -18 -94 -36 -98 -40
-4 -4 -1 -19 7 -35 31 -60 30 -108 -8 -196 -8 -19 30 -39 74 -39 76 0 356 123
513 226 118 77 274 228 326 316 126 215 143 431 51 652 -42 100 -110 195 -206
286 -123 117 -251 193 -422 250 -173 58 -410 76 -587 44z m-92 -665 c21 -5 54
-24 74 -42 93 -82 98 -221 11 -307 -85 -85 -224 -79 -305 13 -92 105 -57 263
71 323 56 26 91 29 149 13z"/>
<path d="M1682 2078 c-51 -249 -92 -458 -92 -464 0 -30 281 -128 470 -164 345
-66 792 -56 1111 25 172 43 359 116 359 139 0 6 -41 215 -92 464 -91 450 -91
452 -112 437 -135 -100 -296 -188 -470 -257 -125 -49 -204 -58 -258 -30 -37
20 -39 20 -75 1 -21 -10 -56 -19 -79 -19 -114 0 -453 159 -650 305 -21 15 -21
13 -112 -437z"/>
<path d="M2072 773 c3 -606 3 -608 25 -650 90 -167 325 -160 404 12 17 37 19
79 19 621 l0 581 -122 6 c-114 6 -252 21 -306 32 l-23 6 3 -608z"/>
<path d="M2950 1365 c-47 -8 -145 -17 -217 -21 l-133 -7 0 -582 0 -581 25 -51
c53 -106 178 -151 285 -102 56 25 86 53 113 104 22 40 22 47 25 648 1 334 -1
606 -5 606 -4 -1 -46 -7 -93 -14z"/>
</g>
</svg>
