<?xml version="1.0" standalone="no"?>
<!DOCTYPE svg PUBLIC "-//W3C//DTD SVG 20010904//EN"
 "http://www.w3.org/TR/2001/REC-SVG-20010904/DTD/svg10.dtd">
<svg version="1.0" xmlns="http://www.w3.org/2000/svg"
 width="512.000000pt" height="512.000000pt" viewBox="0 0 512.000000 512.000000"
 preserveAspectRatio="xMidYMid meet">

<g transform="translate(0.000000,512.000000) scale(0.100000,-0.100000)"
fill="#000000" stroke="none">
<path d="M2332 5019 c-145 -22 -276 -92 -382 -206 -193 -206 -235 -506 -109
-763 42 -84 50 -93 606 -650 l563 -565 511 510 c281 281 537 542 569 582 104
129 152 263 152 428 0 50 -7 121 -16 159 -33 140 -129 289 -240 373 -129 97
-250 137 -406 136 -201 -1 -361 -65 -506 -205 l-62 -60 -88 76 c-96 83 -210
145 -309 170 -81 20 -206 27 -283 15z"/>
<path d="M1580 2455 c-168 -24 -344 -96 -479 -198 -39 -29 -303 -282 -587
-562 l-516 -508 544 -544 c298 -298 547 -543 553 -543 6 0 91 81 190 180 l179
179 996 3 995 3 70 23 c97 33 192 84 258 140 71 59 1295 1435 1319 1482 64
123 -53 245 -246 257 -144 9 -260 -34 -426 -159 -124 -93 -505 -405 -790 -647
l-225 -190 -478 -1 c-432 0 -482 2 -508 17 -53 32 -62 101 -18 142 19 18 42
19 367 23 321 4 352 6 412 26 115 38 208 112 251 201 17 34 24 69 27 133 3 76
1 94 -21 141 -47 103 -126 169 -250 210 -57 18 -92 20 -402 22 -388 3 -425 8
-589 79 -120 52 -229 83 -346 96 -107 12 -161 11 -280 -5z"/>
</g>
</svg>
