<?xml version="1.0" standalone="no"?>
<!DOCTYPE svg PUBLIC "-//W3C//DTD SVG 20010904//EN"
 "http://www.w3.org/TR/2001/REC-SVG-20010904/DTD/svg10.dtd">
<svg version="1.0" xmlns="http://www.w3.org/2000/svg"
 width="512.000000pt" height="512.000000pt" viewBox="0 0 512.000000 512.000000"
 preserveAspectRatio="xMidYMid meet">

<g transform="translate(0.000000,512.000000) scale(0.100000,-0.100000)"
fill="#000000" stroke="none">
<path d="M3031 4720 c-239 -86 -348 -354 -235 -576 35 -70 128 -158 201 -191
51 -24 71 -27 163 -27 103 -1 108 0 182 37 288 142 311 543 41 715 -99 63
-246 80 -352 42z"/>
<path d="M1853 4546 c-108 -35 -215 -133 -254 -234 -31 -79 -31 -205 -1 -282
31 -77 80 -139 143 -183 l55 -37 204 22 205 22 44 44 c24 25 57 75 75 111 28
60 31 75 31 161 0 85 -3 102 -31 160 -41 86 -108 153 -192 193 -55 26 -81 32
-152 34 -53 2 -101 -2 -127 -11z"/>
<path d="M691 3800 c-108 -23 -212 -103 -261 -204 -98 -198 -2 -438 207 -516
82 -31 205 -26 285 12 79 37 142 98 181 177 29 60 32 74 32 161 0 88 -3 101
-33 162 -76 154 -249 241 -411 208z"/>
<path d="M2236 3799 c-341 -23 -775 -94 -882 -145 -48 -23 -74 -70 -74 -134 0
-47 4 -56 38 -91 47 -47 81 -56 152 -40 384 84 609 113 1013 127 l187 7 0
-1477 c0 -1613 -4 -1507 59 -1578 83 -95 262 -91 336 6 58 76 55 32 55 956 l0
851 43 -3 42 -3 5 -865 c6 -952 1 -891 67 -951 46 -43 91 -61 153 -61 89 0
164 45 208 126 16 29 17 127 22 1356 5 1290 5 1323 22 1240 10 -47 24 -133 33
-192 16 -120 41 -180 119 -286 78 -106 268 -284 390 -366 96 -65 226 3 226
119 0 58 -26 93 -132 177 -112 91 -246 228 -280 289 -19 33 -30 76 -43 167
-54 393 -193 672 -378 757 l-52 25 -605 -2 c-333 0 -659 -5 -724 -9z"/>
<path d="M2220 3449 c-246 -19 -442 -49 -736 -113 -64 -14 -77 -14 -122 -1
-28 9 -54 20 -57 25 -3 6 -10 10 -15 10 -22 0 -125 -177 -193 -330 -13 -31
-39 -68 -57 -83 -64 -55 -306 -156 -469 -198 -66 -16 -101 -58 -101 -121 0
-41 5 -54 29 -78 53 -53 83 -51 291 17 138 45 309 128 388 188 68 52 106 101
141 185 52 122 151 294 158 273 3 -8 -290 -1465 -303 -1505 -6 -21 34 -43 160
-87 211 -74 513 -110 777 -92 149 11 322 40 442 75 l57 17 0 404 0 404 -80
392 c-44 216 -78 394 -76 396 7 7 63 -81 110 -173 l45 -89 1 231 c0 211 -2
232 -18 247 -15 14 -40 17 -138 16 -65 -1 -171 -6 -234 -10z"/>
<path d="M390 2981 c-259 -79 -402 -472 -388 -1067 4 -184 9 -202 61 -234 38
-24 78 -25 117 -5 53 28 57 47 63 330 7 301 30 461 84 581 18 38 18 32 21
-308 l2 -348 405 0 c312 0 406 3 412 13 4 6 10 163 13 347 5 335 5 335 23 296
11 -22 27 -71 36 -109 10 -38 20 -63 23 -56 11 32 82 409 77 413 -3 3 -36 -25
-75 -62 -110 -108 -275 -193 -517 -266 -177 -54 -251 -45 -304 36 -37 56 -41
121 -11 178 30 55 58 72 184 109 118 35 274 98 335 134 l44 27 -290 -1 c-159
0 -301 -4 -315 -8z"/>
<path d="M4037 2293 c-37 -57 -50 -109 -45 -177 6 -72 26 -116 77 -169 60 -64
103 -82 201 -82 75 0 91 3 132 27 100 59 156 166 145 273 -5 46 -39 135 -52
135 -2 0 -24 -19 -48 -43 -66 -66 -149 -80 -232 -39 -16 8 -58 37 -92 64 l-62
49 -24 -38z"/>
<path d="M4949 2198 c-24 -17 -138 -104 -254 -192 -115 -89 -226 -167 -245
-175 -19 -7 -53 -20 -75 -28 -65 -25 -173 -20 -240 11 -76 34 -111 33 -170 -6
-131 -87 -219 -299 -247 -591 -11 -122 -11 -128 9 -155 42 -57 102 -64 148
-18 19 19 24 38 29 102 10 116 34 259 50 296 13 29 14 -23 15 -465 1 -549 0
-538 64 -577 41 -26 103 -25 145 0 57 35 62 62 62 320 l0 230 30 0 30 0 0
-235 c0 -194 3 -241 15 -266 34 -65 128 -89 193 -49 63 39 62 29 62 678 l0
589 266 203 c171 131 269 212 276 229 14 38 1 87 -29 111 -38 29 -82 26 -134
-12z"/>
<path d="M350 1223 c0 -640 1 -658 20 -699 41 -84 146 -124 235 -90 53 21 100
71 114 123 7 24 11 209 11 501 l0 462 35 0 35 0 0 -457 c0 -300 4 -472 11
-498 44 -162 252 -196 340 -57 l29 46 0 542 0 542 -30 12 c-17 7 -33 16 -35
21 -3 4 4 48 15 98 11 50 20 95 20 101 0 7 -137 10 -400 10 l-400 0 0 -657z"/>
<path d="M1570 1024 c0 -453 2 -492 19 -529 22 -48 44 -69 94 -90 45 -19 97
-19 140 -1 39 16 94 76 104 114 5 15 8 236 8 492 l0 465 -45 3 c-60 3 -233 21
-281 28 l-39 7 0 -489z"/>
<path d="M2225 1494 c-55 -7 -128 -13 -162 -13 l-63 -1 0 -477 c0 -536 -2
-517 73 -577 35 -28 46 -31 107 -31 61 0 72 3 107 31 76 60 73 39 73 592 0
462 -1 492 -17 491 -10 -1 -63 -8 -118 -15z"/>
</g>
</svg>
