<?xml version="1.0" standalone="no"?>
<!DOCTYPE svg PUBLIC "-//W3C//DTD SVG 20010904//EN"
 "http://www.w3.org/TR/2001/REC-SVG-20010904/DTD/svg10.dtd">
<svg version="1.0" xmlns="http://www.w3.org/2000/svg"
 width="512.000000pt" height="512.000000pt" viewBox="0 0 512.000000 512.000000"
 preserveAspectRatio="xMidYMid meet">

<g transform="translate(0.000000,512.000000) scale(0.100000,-0.100000)"
fill="#000000" stroke="none">
<path d="M2175 5108 c-190 -21 -412 -93 -564 -184 -98 -58 -234 -181 -297
-269 -88 -125 -154 -300 -171 -461 l-8 -69 -75 -6 c-227 -19 -414 -146 -505
-344 -42 -89 -55 -154 -55 -264 0 -168 59 -309 180 -431 124 -123 253 -179
437 -187 128 -7 229 6 336 43 54 19 73 21 78 12 15 -24 22 -123 16 -233 -9
-151 -43 -304 -136 -615 -138 -460 -160 -568 -168 -816 -11 -349 44 -694 166
-1041 61 -176 80 -214 113 -232 35 -20 78 -6 96 32 13 26 10 39 -36 160 -134
353 -187 635 -187 1002 0 263 15 360 97 642 l21 72 194 3 195 3 25 29 c27 31
25 66 -4 99 -14 15 -37 17 -183 17 -92 0 -169 2 -172 5 -3 3 13 67 34 143 98
347 122 605 72 788 -4 16 5 27 53 56 32 20 89 59 127 87 l69 50 49 -35 c102
-75 282 -110 328 -64 26 26 26 81 1 104 -12 11 -48 21 -90 27 -83 10 -132 33
-183 86 -53 55 -81 124 -82 203 -1 79 26 130 85 160 67 35 117 24 180 -40 59
-60 91 -56 160 18 119 125 231 297 290 445 18 45 37 85 42 88 5 4 38 9 73 13
83 8 220 49 298 87 119 59 212 150 252 245 l16 39 18 -23 c33 -40 79 -168 96
-263 15 -88 17 -300 2 -314 -3 -3 -26 4 -53 16 -62 27 -180 48 -276 49 -94 0
-129 -20 -129 -76 0 -59 21 -70 151 -77 113 -6 203 -28 256 -62 21 -14 22 -20
16 -93 -6 -89 13 -181 52 -248 13 -23 54 -76 90 -118 36 -42 65 -86 65 -97 0
-37 -52 -76 -118 -89 -34 -7 -68 -20 -76 -29 -8 -9 -22 -45 -31 -81 -36 -144
-34 -140 -58 -140 -36 0 -139 55 -176 94 -26 26 -43 36 -66 36 -39 0 -75 -36
-75 -74 0 -59 147 -173 247 -192 19 -4 37 -12 39 -19 3 -6 -6 -41 -19 -76 -60
-158 -124 -252 -201 -291 -81 -42 -296 -7 -520 83 -199 81 -181 76 -213 53
-30 -22 -39 -50 -28 -91 4 -18 23 -32 70 -55 l65 -30 0 -174 c0 -96 -1 -174
-2 -174 -2 0 -32 10 -68 21 -37 12 -107 23 -161 26 -89 5 -98 4 -118 -16 -26
-26 -27 -71 -3 -100 14 -18 34 -24 109 -31 206 -21 391 -135 490 -301 18 -30
179 -398 358 -819 180 -421 333 -772 341 -779 7 -8 30 -15 50 -15 41 0 74 30
74 67 0 12 -70 184 -155 383 -85 200 -155 366 -155 370 0 4 24 4 54 0 66 -7
186 8 263 35 31 10 59 19 64 19 4 0 19 -20 33 -44 36 -62 117 -131 184 -158
54 -21 74 -22 343 -26 l287 -4 6 -30 c3 -17 6 -147 6 -290 0 -208 3 -265 15
-287 24 -47 66 -54 110 -19 l28 22 -6 360 c-10 620 -59 899 -182 1034 -39 44
-143 102 -182 102 -23 0 -23 2 -17 49 7 57 -10 140 -35 173 -10 13 -21 47 -25
76 -15 117 -88 275 -169 368 -46 52 -89 59 -125 21 -28 -30 -28 -68 1 -104 50
-60 89 -125 112 -188 30 -79 30 -75 5 -75 -29 0 -90 -33 -119 -64 -69 -74 22
-169 102 -106 34 27 62 25 86 -6 23 -30 26 -59 10 -101 -17 -46 -47 -70 -201
-164 -86 -53 -163 -108 -188 -135 -50 -54 -87 -131 -96 -198 -7 -46 -9 -50
-52 -68 -75 -34 -197 -51 -270 -38 -117 20 -121 24 -189 184 l-60 141 44 23
c44 23 103 98 103 133 0 33 -39 69 -76 69 -28 0 -42 -8 -73 -41 -21 -23 -43
-40 -50 -38 -6 2 -31 50 -55 105 -24 55 -56 120 -71 144 -25 39 -27 50 -21
102 25 238 233 460 482 513 118 25 240 13 361 -36 66 -26 98 -20 119 24 21 44
6 80 -45 106 -63 33 -178 60 -279 67 -62 5 -91 11 -88 18 62 142 85 206 121
331 23 83 45 162 49 177 5 21 16 30 58 44 97 32 178 137 178 230 0 45 -42 123
-104 192 -109 123 -120 173 -85 373 30 170 33 414 6 523 -64 255 -205 441
-433 571 -43 25 -86 45 -95 45 -32 0 -69 -39 -69 -74 0 -41 13 -56 75 -91 28
-15 72 -44 98 -63 46 -33 48 -37 42 -71 -17 -99 -101 -203 -205 -256 -69 -35
-213 -71 -318 -80 -54 -5 -90 -13 -102 -24 -10 -9 -28 -47 -40 -86 -33 -104
-115 -257 -193 -361 l-69 -92 -60 32 c-52 26 -72 31 -132 31 -125 0 -218 -63
-275 -185 -22 -46 -26 -68 -25 -140 1 -58 8 -103 22 -141 l20 -57 -67 -50
c-73 -55 -151 -105 -156 -100 -1 2 -15 28 -30 58 -15 30 -54 100 -86 155 -181
312 -239 527 -209 780 35 300 184 517 450 659 267 141 640 182 1000 110 79
-16 82 -16 108 3 37 27 42 81 10 110 -59 55 -438 89 -683 61z m-1032 -1210 c7
-83 34 -186 77 -297 28 -72 66 -143 204 -389 32 -57 56 -106 52 -109 -3 -3
-43 -17 -88 -31 -100 -29 -265 -40 -349 -23 -153 32 -281 131 -347 268 -36 77
-37 80 -37 198 0 118 1 121 37 197 73 153 228 256 389 257 l56 1 6 -72z m1618
-1624 l116 -28 -44 -54 c-48 -59 -114 -183 -134 -252 -7 -25 -14 -47 -15 -48
-1 -2 -16 6 -33 19 l-31 23 0 189 c0 147 3 188 13 184 6 -3 64 -17 128 -33z
m1483 -886 c65 -20 111 -74 140 -166 29 -92 52 -221 62 -340 l7 -83 -274 3
c-258 3 -276 4 -314 25 -127 68 -164 237 -76 344 31 37 276 192 340 215 46 17
64 17 115 2z"/>
<path d="M2882 3610 c-14 -14 -22 -33 -22 -55 0 -70 132 -148 251 -148 70 0
113 16 128 49 16 35 14 48 -11 79 -20 26 -25 27 -78 22 -65 -6 -115 9 -160 47
-38 31 -78 33 -108 6z"/>
<path d="M3529 1690 c-32 -40 -32 -40 -96 -37 -57 2 -67 -1 -84 -22 -26 -31
-24 -64 5 -98 21 -24 32 -28 92 -31 57 -3 77 1 113 20 93 48 135 146 82 189
-39 32 -76 25 -112 -21z"/>
<path d="M3378 1304 c-21 -15 -56 -28 -83 -31 -93 -11 -116 -100 -36 -142 46
-25 153 5 216 60 45 40 49 87 9 118 -35 28 -62 26 -106 -5z"/>
<path d="M2082 827 c-12 -13 -22 -34 -22 -47 0 -40 298 -732 326 -758 29 -26
61 -28 91 -7 46 32 42 46 -122 433 -87 204 -165 375 -177 385 -28 24 -70 21
-96 -6z"/>
</g>
</svg>
